<svg xmlns="http://www.w3.org/2000/svg" version="1.1" xmlns:xlink="http://www.w3.org/1999/xlink" xmlns:svgjs="http://svgjs.dev/svgjs" width="1500" height="253" viewBox="0 0 1500 253"><g transform="matrix(1,0,0,1,-0.9090909090909918,0.24657956911845247)"><svg viewBox="0 0 396 67" data-background-color="#111111" preserveAspectRatio="xMidYMid meet" height="253" width="1500" xmlns="http://www.w3.org/2000/svg" xmlns:xlink="http://www.w3.org/1999/xlink"><g id="tight-bounds" transform="matrix(1,0,0,1,0.2400000000000091,-0.06529972779026139)"><svg viewBox="0 0 395.52 67.13059945558054" height="67.13059945558054" width="395.52"><g><svg viewBox="0 0 493.6106100946542 83.77926818691589" height="67.13059945558054" width="395.52"><g transform="matrix(1,0,0,1,0,11.578755588785047)"><svg viewBox="0 0 395.52 60.62175700934579" height="60.62175700934579" width="395.52"><g id="textblocktransform"><svg viewBox="0 0 395.52 60.62175700934579" height="60.62175700934579" width="395.52" id="textblock"><g><svg viewBox="0 0 395.52 60.62175700934579" height="60.62175700934579" width="395.52"><g transform="matrix(1,0,0,1,0,0)"><svg width="395.52" viewBox="3.95 -40.5 267.48 41" height="60.62175700934579" data-palette-color="#ffffff"><path d="M30.95-37.55L30.95-8Q30.95-3.95 28.25-1.95L28.25-1.95Q26.95-1 25.58-0.48 24.2 0.05 22.9 0.05L22.9 0.05 12 0.05Q10.7 0.05 9.33-0.48 7.95-1 6.65-1.95L6.65-1.95Q5.35-2.95 4.65-4.42 3.95-5.9 3.95-8L3.95-8 3.95-37.55Q3.95-39.95 6.9-39.95L6.9-39.95Q9.9-39.95 9.9-37.55L9.9-37.55 9.9-8.4Q9.9-7.1 10.65-6.05 11.4-5 13.25-5L13.25-5 21.65-5Q23.5-5 24.25-6.05 25-7.1 25-8.4L25-8.4 25-37.55Q25-39.95 27.95-39.95L27.95-39.95Q30.95-39.95 30.95-37.55L30.95-37.55ZM44.75-37.55L44.75-2.1Q44.75 0.3 41.75 0.3L41.75 0.3Q38.8 0.3 38.8-2.1L38.8-2.1 38.8-37.55Q38.8-39.95 41.75-39.95L41.75-39.95Q44.75-39.95 44.75-37.55L44.75-37.55ZM58.7-34.65L58.7-2.1Q58.7 0.3 55.75 0.3L55.75 0.3Q52.8 0.3 52.8-2.1L52.8-2.1 52.8-36.7Q52.8-37.85 53.45-38.78 54.1-39.7 55.95-39.7L55.95-39.7 72.95-39.7Q74.75-39.7 74.84-37.2L74.84-37.2Q74.95-34.65 72.95-34.65L72.95-34.65 58.7-34.65ZM71.5-20.65L71.5-20.65Q71.5-19.8 71.17-19.03 70.84-18.25 70.27-17.7 69.7-17.15 68.95-16.82 68.2-16.5 67.3-16.5L67.3-16.5Q65.59-16.5 64.4-17.7 63.2-18.9 63.2-20.65L63.2-20.65Q63.2-22.4 64.4-23.6 65.59-24.8 67.3-24.8L67.3-24.8Q68.2-24.8 68.95-24.48 69.7-24.15 70.27-23.58 70.84-23 71.17-22.25 71.5-21.5 71.5-20.65ZM104.44-1.2L93.44-34.8 82.49-1.2 82.49-1.25Q82.19-0.5 81.67-0.03 81.14 0.45 80.39 0.45L80.39 0.45Q79.99 0.45 79.62 0.38 79.24 0.3 78.84 0.2L78.84 0.2 78.89 0.2Q76.04-0.7 76.79-3L76.79-3 88.19-37.65Q88.44-38.45 89.07-39 89.69-39.55 90.54-39.65L90.54-39.65Q91.39-39.8 92.19-39.88 92.99-39.95 93.44-39.95L93.44-39.95Q93.89-39.95 94.69-39.88 95.49-39.8 96.34-39.7L96.34-39.7Q97.04-39.6 97.72-38.95 98.39-38.3 98.74-37.65L98.74-37.65Q101.54-29.05 104.42-20.33 107.29-11.6 110.09-3L110.09-3Q110.79-0.7 107.99 0.2L107.99 0.2Q107.59 0.3 107.27 0.38 106.94 0.45 106.54 0.45L106.54 0.45Q105.84 0.45 105.27-0.03 104.69-0.5 104.44-1.25L104.44-1.25 104.44-1.2ZM97.19-12L97.19-12Q97.19-10.4 96.07-9.28 94.94-8.15 93.34-8.15L93.34-8.15Q91.74-8.15 90.64-9.28 89.54-10.4 89.54-12L89.54-12Q89.54-13.6 90.64-14.73 91.74-15.85 93.34-15.85L93.34-15.85Q94.94-15.85 96.07-14.73 97.19-13.6 97.19-12ZM141.54-11.3L141.54-8Q141.54-3.95 138.84-1.95L138.84-1.95Q137.54-1 136.17-0.48 134.79 0.05 133.49 0.05L133.49 0.05 122.59 0.05Q121.29 0.05 119.92-0.48 118.54-1 117.24-1.95L117.24-1.95Q115.94-2.95 115.24-4.42 114.54-5.9 114.54-8L114.54-8 114.54-31.75Q114.54-33.75 115.24-35.27 115.94-36.8 117.24-37.75L117.24-37.75 117.19-37.75Q118.49-38.6 119.89-39.15 121.29-39.7 122.59-39.7L122.59-39.7 133.49-39.7Q134.79-39.7 136.19-39.15 137.59-38.6 138.89-37.75L138.89-37.75 138.84-37.75Q140.14-36.8 140.84-35.27 141.54-33.75 141.54-31.75L141.54-31.75 141.54-28.3Q141.54-25.9 138.54-25.9L138.54-25.9Q135.59-25.9 135.59-28.3L135.59-28.3 135.59-31.3Q135.59-32.55 134.84-33.6 134.09-34.65 132.24-34.65L132.24-34.65 123.84-34.65Q121.99-34.65 121.24-33.6 120.49-32.55 120.49-31.3L120.49-31.3 120.49-8.4Q120.49-7.1 121.24-6.05 121.99-5 123.84-5L123.84-5 132.24-5Q134.09-5 134.84-6.05 135.59-7.1 135.59-8.4L135.59-8.4 135.59-11.3Q135.59-13.65 138.54-13.65L138.54-13.65Q141.54-13.65 141.54-11.3L141.54-11.3ZM162.14-34.65L162.14-2Q162.14 0.4 159.14 0.4L159.14 0.4Q156.19 0.4 156.19-2L156.19-2 156.19-34.65 147.44-34.65Q145.64-34.65 145.54-37.2L145.54-37.2Q145.54-39.7 147.44-39.7L147.44-39.7 170.89-39.7Q172.79-39.7 172.69-37.2L172.69-37.2Q172.69-34.65 170.89-34.65L170.89-34.65 162.14-34.65ZM185.14-39.7L196.04-39.7Q197.34-39.7 198.74-39.15 200.14-38.6 201.44-37.75L201.44-37.75 201.39-37.75Q202.69-36.8 203.39-35.27 204.09-33.75 204.09-31.75L204.09-31.75 204.09-8Q204.09-3.95 201.39-1.95L201.39-1.95Q200.09-1 198.71-0.48 197.34 0.05 196.04 0.05L196.04 0.05 185.14 0.05Q183.84 0.05 182.46-0.48 181.09-1 179.79-1.95L179.79-1.95Q178.49-2.95 177.79-4.42 177.09-5.9 177.09-8L177.09-8 177.09-31.75Q177.09-33.75 177.79-35.27 178.49-36.8 179.79-37.75L179.79-37.75 179.74-37.75Q181.04-38.6 182.44-39.15 183.84-39.7 185.14-39.7L185.14-39.7ZM186.39-5L194.79-5Q196.64-5 197.39-6.05 198.14-7.1 198.14-8.4L198.14-8.4 198.14-31.3Q198.14-32.55 197.39-33.6 196.64-34.65 194.79-34.65L194.79-34.65 186.39-34.65Q184.54-34.65 183.79-33.6 183.04-32.55 183.04-31.3L183.04-31.3 183.04-8.4Q183.04-7.1 183.79-6.05 184.54-5 186.39-5L186.39-5ZM235.23-0.6L225.78-16.45 221.93-16.45Q221.08-16.45 220.61-17.13 220.13-17.8 220.13-18.95L220.13-18.95Q220.13-21.5 222.23-21.5L222.23-21.5 228.08-21.5Q229.93-21.5 230.68-22.55 231.43-23.6 231.43-24.85L231.43-24.85 231.43-31.3Q231.43-32.55 230.68-33.6 229.93-34.65 228.08-34.65L228.08-34.65 217.53-34.65 217.53-2.05Q217.53 0.35 214.58 0.35L214.58 0.35Q211.63 0.35 211.63-2.05L211.63-2.05 211.63-36.7Q211.63-38.5 212.56-39.1 213.48-39.7 214.78-39.7L214.78-39.7 229.33-39.7Q230.63-39.7 232.03-39.15 233.43-38.6 234.73-37.75L234.73-37.75 234.68-37.75Q235.98-36.8 236.68-35.27 237.38-33.75 237.38-31.75L237.38-31.75 237.38-24.45Q237.38-20.4 234.68-18.4L234.68-18.4Q234.13-18 233.51-17.65 232.88-17.3 232.23-16.95L232.23-16.95 240.23-3.75Q240.38-3.5 240.53-3.1 240.68-2.7 240.68-2.45L240.68-2.45Q240.68-1.25 238.98-0.15L238.98-0.15 238.98-0.2Q237.83 0.5 237.03 0.5L237.03 0.5Q235.88 0.5 235.18-0.65L235.18-0.65 235.23-0.6ZM259.93-15.15L259.93-2Q259.93 0.4 256.98 0.4L256.98 0.4Q254.03 0.4 254.03-2L254.03-2 254.03-15.3 242.83-36.6Q242.53-37.25 242.53-37.95L242.53-37.95Q242.53-39.4 244.23-40.1L244.23-40.1 244.18-40.1Q245.28-40.5 245.93-40.5L245.93-40.5Q247.23-40.5 247.93-39.2L247.93-39.2 257.03-22.1Q258.03-24 259.18-26.18 260.33-28.35 261.51-30.6 262.68-32.85 263.83-35.05 264.98-37.25 266.03-39.2L266.03-39.2Q266.43-39.8 266.91-40.15 267.38-40.5 268.08-40.5L268.08-40.5Q268.78-40.5 269.73-40.1L269.73-40.1 269.68-40.1Q271.43-39.35 271.43-37.9L271.43-37.9Q271.43-37.6 271.38-37.27 271.33-36.95 271.13-36.6L271.13-36.6Q270.68-35.7 270.01-34.4 269.33-33.1 268.11-30.78 266.88-28.45 264.93-24.73 262.98-21 259.93-15.15L259.93-15.15Z" opacity="1" transform="matrix(1,0,0,1,0,0)" fill="#ffffff" class="wordmark-text-0" data-fill-palette-color="primary" id="text-0"></path></svg></g></svg></g></svg></g></svg></g><g transform="matrix(1,0,0,1,409.8313419077383,0)"><svg viewBox="0 0 83.77926818691589 83.77926818691589" height="83.77926818691589" width="83.77926818691589"><g><svg xmlns="http://www.w3.org/2000/svg" xmlns:xlink="http://www.w3.org/1999/xlink" version="1.1" x="0" y="0" viewBox="0 0 16 16" style="enable-background:new 0 0 16 16;" xml:space="preserve" height="83.77926818691589" width="83.77926818691589" class="icon-icon-0" data-fill-palette-color="accent" id="icon-0"><g fill="#ffffff" data-fill-palette-color="accent"><g fill="#ffffff" data-fill-palette-color="accent"><rect width="4" height="16" fill="#ffffff" data-fill-palette-color="accent"></rect><rect x="6" y="9" width="10" height="7" fill="#ffffff" data-fill-palette-color="accent"></rect><rect x="6" width="10" height="7" fill="#ffffff" data-fill-palette-color="accent"></rect></g></g></svg></g></svg></g></svg></g><defs></defs></svg><rect width="395.52" height="67.13059945558054" fill="none" stroke="none" visibility="hidden"></rect></g></svg></g></svg>