<svg xmlns="http://www.w3.org/2000/svg" version="1.1" xmlns:xlink="http://www.w3.org/1999/xlink" xmlns:svgjs="http://svgjs.dev/svgjs" width="2000" height="323" viewBox="0 0 2000 323"><g transform="matrix(1,0,0,1,-1.2121212121212466,0.6157591411901251)"><svg viewBox="0 0 396 64" data-background-color="#111111" preserveAspectRatio="xMidYMid meet" height="323" width="2000" xmlns="http://www.w3.org/2000/svg" xmlns:xlink="http://www.w3.org/1999/xlink"><g id="tight-bounds" transform="matrix(1,0,0,1,0.2400000000000091,-0.12200800320795224)"><svg viewBox="0 0 395.52 64.24401600641593" height="64.24401600641593" width="395.52"><g><svg viewBox="0 0 488.402259116177 79.33081146902654" height="64.24401600641593" width="395.52"><g transform="matrix(1,0,0,1,0,10.963954407079648)"><svg viewBox="0 0 395.52 57.40290265486725" height="57.40290265486725" width="395.52"><g id="textblocktransform"><svg viewBox="0 0 395.52 57.40290265486725" height="57.40290265486725" width="395.52" id="textblock"><g><svg viewBox="0 0 395.52 57.40290265486725" height="57.40290265486725" width="395.52"><g transform="matrix(1,0,0,1,0,0)"><svg width="395.52" viewBox="3.95 -40.5 282.48 41" height="57.40290265486725" data-palette-color="#ffffff"><path d="M30.95-37.55L30.95-8Q30.95-3.95 28.25-1.95L28.25-1.95Q26.95-1 25.58-0.48 24.2 0.05 22.9 0.05L22.9 0.05 12 0.05Q10.7 0.05 9.33-0.48 7.95-1 6.65-1.95L6.65-1.95Q5.35-2.95 4.65-4.42 3.95-5.9 3.95-8L3.95-8 3.95-37.55Q3.95-39.95 6.9-39.95L6.9-39.95Q9.9-39.95 9.9-37.55L9.9-37.55 9.9-8.4Q9.9-7.1 10.65-6.05 11.4-5 13.25-5L13.25-5 21.65-5Q23.5-5 24.25-6.05 25-7.1 25-8.4L25-8.4 25-37.55Q25-39.95 27.95-39.95L27.95-39.95Q30.95-39.95 30.95-37.55L30.95-37.55ZM44.75-37.55L44.75-2.1Q44.75 0.3 41.75 0.3L41.75 0.3Q38.8 0.3 38.8-2.1L38.8-2.1 38.8-37.55Q38.8-39.95 41.75-39.95L41.75-39.95Q44.75-39.95 44.75-37.55L44.75-37.55ZM73.69-34.65L73.69-2.1Q73.69 0.3 70.74 0.3L70.74 0.3Q67.79 0.3 67.79-2.1L67.79-2.1 67.79-36.7Q67.79-37.85 68.44-38.78 69.09-39.7 70.94-39.7L70.94-39.7 87.94-39.7Q89.74-39.7 89.84-37.2L89.84-37.2Q89.94-34.65 87.94-34.65L87.94-34.65 73.69-34.65ZM86.49-20.65L86.49-20.65Q86.49-19.8 86.17-19.03 85.84-18.25 85.27-17.7 84.69-17.15 83.94-16.82 83.19-16.5 82.29-16.5L82.29-16.5Q80.59-16.5 79.39-17.7 78.19-18.9 78.19-20.65L78.19-20.65Q78.19-22.4 79.39-23.6 80.59-24.8 82.29-24.8L82.29-24.8Q83.19-24.8 83.94-24.48 84.69-24.15 85.27-23.58 85.84-23 86.17-22.25 86.49-21.5 86.49-20.65ZM119.44-1.2L108.44-34.8 97.49-1.2 97.49-1.25Q97.19-0.5 96.67-0.03 96.14 0.45 95.39 0.45L95.39 0.45Q94.99 0.45 94.62 0.38 94.24 0.3 93.84 0.2L93.84 0.2 93.89 0.2Q91.04-0.7 91.79-3L91.79-3 103.19-37.65Q103.44-38.45 104.07-39 104.69-39.55 105.54-39.65L105.54-39.65Q106.39-39.8 107.19-39.88 107.99-39.95 108.44-39.95L108.44-39.95Q108.89-39.95 109.69-39.88 110.49-39.8 111.34-39.7L111.34-39.7Q112.04-39.6 112.72-38.95 113.39-38.3 113.74-37.65L113.74-37.65Q116.54-29.05 119.42-20.33 122.29-11.6 125.09-3L125.09-3Q125.79-0.7 122.99 0.2L122.99 0.2Q122.59 0.3 122.27 0.38 121.94 0.45 121.54 0.45L121.54 0.45Q120.84 0.45 120.27-0.03 119.69-0.5 119.44-1.25L119.44-1.25 119.44-1.2ZM112.19-12L112.19-12Q112.19-10.4 111.07-9.28 109.94-8.15 108.34-8.15L108.34-8.15Q106.74-8.15 105.64-9.28 104.54-10.4 104.54-12L104.54-12Q104.54-13.6 105.64-14.73 106.74-15.85 108.34-15.85L108.34-15.85Q109.94-15.85 111.07-14.73 112.19-13.6 112.19-12ZM156.54-11.3L156.54-8Q156.54-3.95 153.84-1.95L153.84-1.95Q152.54-1 151.16-0.48 149.79 0.05 148.49 0.05L148.49 0.05 137.59 0.05Q136.29 0.05 134.91-0.48 133.54-1 132.24-1.95L132.24-1.95Q130.94-2.95 130.24-4.42 129.54-5.9 129.54-8L129.54-8 129.54-31.75Q129.54-33.75 130.24-35.27 130.94-36.8 132.24-37.75L132.24-37.75 132.19-37.75Q133.49-38.6 134.89-39.15 136.29-39.7 137.59-39.7L137.59-39.7 148.49-39.7Q149.79-39.7 151.19-39.15 152.59-38.6 153.89-37.75L153.89-37.75 153.84-37.75Q155.14-36.8 155.84-35.27 156.54-33.75 156.54-31.75L156.54-31.75 156.54-28.3Q156.54-25.9 153.54-25.9L153.54-25.9Q150.59-25.9 150.59-28.3L150.59-28.3 150.59-31.3Q150.59-32.55 149.84-33.6 149.09-34.65 147.24-34.65L147.24-34.65 138.84-34.65Q136.99-34.65 136.24-33.6 135.49-32.55 135.49-31.3L135.49-31.3 135.49-8.4Q135.49-7.1 136.24-6.05 136.99-5 138.84-5L138.84-5 147.24-5Q149.09-5 149.84-6.05 150.59-7.1 150.59-8.4L150.59-8.4 150.59-11.3Q150.59-13.65 153.54-13.65L153.54-13.65Q156.54-13.65 156.54-11.3L156.54-11.3ZM177.14-34.65L177.14-2Q177.14 0.4 174.14 0.4L174.14 0.4Q171.19 0.4 171.19-2L171.19-2 171.19-34.65 162.44-34.65Q160.64-34.65 160.54-37.2L160.54-37.2Q160.54-39.7 162.44-39.7L162.44-39.7 185.89-39.7Q187.79-39.7 187.69-37.2L187.69-37.2Q187.69-34.65 185.89-34.65L185.89-34.65 177.14-34.65ZM200.13-39.7L211.03-39.7Q212.33-39.7 213.73-39.15 215.13-38.6 216.43-37.75L216.43-37.75 216.38-37.75Q217.68-36.8 218.38-35.27 219.08-33.75 219.08-31.75L219.08-31.75 219.08-8Q219.08-3.95 216.38-1.95L216.38-1.95Q215.08-1 213.71-0.48 212.33 0.05 211.03 0.05L211.03 0.05 200.13 0.05Q198.83 0.05 197.46-0.48 196.08-1 194.78-1.95L194.78-1.95Q193.48-2.95 192.78-4.42 192.08-5.9 192.08-8L192.08-8 192.08-31.75Q192.08-33.75 192.78-35.27 193.48-36.8 194.78-37.75L194.78-37.75 194.73-37.75Q196.03-38.6 197.43-39.15 198.83-39.7 200.13-39.7L200.13-39.7ZM201.38-5L209.78-5Q211.63-5 212.38-6.05 213.13-7.1 213.13-8.4L213.13-8.4 213.13-31.3Q213.13-32.55 212.38-33.6 211.63-34.65 209.78-34.65L209.78-34.65 201.38-34.65Q199.53-34.65 198.78-33.6 198.03-32.55 198.03-31.3L198.03-31.3 198.03-8.4Q198.03-7.1 198.78-6.05 199.53-5 201.38-5L201.38-5ZM250.23-0.6L240.78-16.45 236.93-16.45Q236.08-16.45 235.61-17.13 235.13-17.8 235.13-18.95L235.13-18.95Q235.13-21.5 237.23-21.5L237.23-21.5 243.08-21.5Q244.93-21.5 245.68-22.55 246.43-23.6 246.43-24.85L246.43-24.85 246.43-31.3Q246.43-32.55 245.68-33.6 244.93-34.65 243.08-34.65L243.08-34.65 232.53-34.65 232.53-2.05Q232.53 0.35 229.58 0.35L229.58 0.35Q226.63 0.35 226.63-2.05L226.63-2.05 226.63-36.7Q226.63-38.5 227.56-39.1 228.48-39.7 229.78-39.7L229.78-39.7 244.33-39.7Q245.63-39.7 247.03-39.15 248.43-38.6 249.73-37.75L249.73-37.75 249.68-37.75Q250.98-36.8 251.68-35.27 252.38-33.75 252.38-31.75L252.38-31.75 252.38-24.45Q252.38-20.4 249.68-18.4L249.68-18.4Q249.13-18 248.51-17.65 247.88-17.3 247.23-16.95L247.23-16.95 255.23-3.75Q255.38-3.5 255.53-3.1 255.68-2.7 255.68-2.45L255.68-2.45Q255.68-1.25 253.98-0.15L253.98-0.15 253.98-0.2Q252.83 0.5 252.03 0.5L252.03 0.5Q250.88 0.5 250.18-0.65L250.18-0.65 250.23-0.6ZM274.93-15.15L274.93-2Q274.93 0.4 271.98 0.4L271.98 0.4Q269.03 0.4 269.03-2L269.03-2 269.03-15.3 257.83-36.6Q257.53-37.25 257.53-37.95L257.53-37.95Q257.53-39.4 259.23-40.1L259.23-40.1 259.18-40.1Q260.28-40.5 260.93-40.5L260.93-40.5Q262.23-40.5 262.93-39.2L262.93-39.2 272.03-22.1Q273.03-24 274.18-26.18 275.33-28.35 276.5-30.6 277.68-32.85 278.83-35.05 279.98-37.25 281.03-39.2L281.03-39.2Q281.43-39.8 281.9-40.15 282.38-40.5 283.08-40.5L283.08-40.5Q283.78-40.5 284.73-40.1L284.73-40.1 284.68-40.1Q286.43-39.35 286.43-37.9L286.43-37.9Q286.43-37.6 286.38-37.27 286.33-36.95 286.13-36.6L286.13-36.6Q285.68-35.7 285-34.4 284.33-33.1 283.1-30.78 281.88-28.45 279.93-24.73 277.98-21 274.93-15.15L274.93-15.15Z" opacity="1" transform="matrix(1,0,0,1,0,0)" fill="#ffffff" class="wordmark-text-0" data-fill-palette-color="primary" id="text-0"></path></svg></g></svg></g></svg></g></svg></g><g transform="matrix(1,0,0,1,409.0714476471504,0)"><svg viewBox="0 0 79.33081146902654 79.33081146902654" height="79.33081146902654" width="79.33081146902654"><g><svg xmlns="http://www.w3.org/2000/svg" xmlns:xlink="http://www.w3.org/1999/xlink" version="1.1" x="0" y="0" viewBox="0 0 16 16" style="enable-background:new 0 0 16 16;" xml:space="preserve" height="79.33081146902654" width="79.33081146902654" class="icon-icon-0" data-fill-palette-color="accent" id="icon-0"><g fill="#ffffff" data-fill-palette-color="accent"><g fill="#ffffff" data-fill-palette-color="accent"><rect width="4" height="16" fill="#ffffff" data-fill-palette-color="accent"></rect><rect x="6" y="9" width="10" height="7" fill="#ffffff" data-fill-palette-color="accent"></rect><rect x="6" width="10" height="7" fill="#ffffff" data-fill-palette-color="accent"></rect></g></g></svg></g></svg></g></svg></g><defs></defs></svg><rect width="395.52" height="64.24401600641593" fill="none" stroke="none" visibility="hidden"></rect></g></svg></g></svg>